<?xml version="1.0" encoding="UTF-8"?>
<svg id="Layer_2" xmlns="http://www.w3.org/2000/svg" viewBox="0 0 197.61 229.62">
  <defs>
    <style>
      .cls-1 {
        fill: #ed5f23;
      }

      .cls-2 {
        fill: #343379;
      }
    </style>
  </defs>
  <g id="Layer_2-2" data-name="Layer_2">
    <g>
      <rect class="cls-2" x="103.62" y="76.8" width="15.85" height="15.85"/>
      <rect class="cls-2" x="103.62" y="51.76" width="15.85" height="15.85"/>
      <path class="cls-1" d="M195.3,59.58l-68.21,46.54c13.05,6.76,21.07,21.24,20.71,37.92-.41,18.23-10.35,33.79-25.68,40.71v37.99l75.49-57.04-2.3-106.12h0Z"/>
      <path class="cls-2" d="M121.77,109.64v32.93l-2.45,1.5-20.52,12.63-20.52-12.63-2.45-1.5v-32.93c-29.14,11.48-27.31,60.3,5.08,71.44v45.12c0,1.89,1.53,3.42,3.42,3.42h28.95c1.89,0,3.42-1.53,3.42-3.42v-45.12c32.39-11.14,34.22-59.96,5.08-71.44h-.01Z"/>
      <polygon class="cls-2" points="98.8 22.81 172.59 63.71 190.24 50.84 98.8 0 7.36 50.84 25 63.71 98.8 22.81"/>
      <rect class="cls-2" x="78.12" y="76.8" width="15.85" height="15.85"/>
      <rect class="cls-2" x="78.12" y="51.76" width="15.85" height="15.85"/>
      <path class="cls-1" d="M49.81,144.04c-.37-16.68,7.66-31.16,20.71-37.92L2.3,59.58,0,165.7l75.49,57.04v-37.99c-15.33-6.93-25.28-22.48-25.68-40.71h0Z"/>
    </g>
  </g>
</svg>