<?xml version="1.0" encoding="UTF-8"?>
<svg id="Layer_2" xmlns="http://www.w3.org/2000/svg" viewBox="0 0 1374.61 229.61">
  <defs>
    <style>
      .cls-1 {
        fill: #ed7c23;
      }

      .cls-2 {
        fill: #ed5f23;
      }

      .cls-3 {
        fill: #343379;
      }
    </style>
  </defs>
  <g id="Layer_1-2" data-name="Layer_1">
    <g>
      <g>
        <g>
          <path class="cls-3" d="M301.25,91.51c-2.08-3.27-5.04-5.75-8.9-7.47-3.86-1.72-8.51-2.57-13.95-2.57h-24.28v62.24h8.88v-18.85h15.4c5.44,0,10.1-.87,13.95-2.61,3.86-1.75,6.82-4.24,8.9-7.47,2.07-3.23,3.11-7.1,3.11-11.61s-1.04-8.39-3.11-11.65ZM291.05,113.46c-2.92,2.43-7.24,3.64-12.93,3.64h-15.13v-27.92h15.13c5.68,0,10.01,1.23,12.93,3.66,2.93,2.43,4.4,5.87,4.4,10.31s-1.47,7.88-4.4,10.31Z"/>
          <path class="cls-3" d="M369.98,122.86c.59-.21,1.15-.44,1.69-.68,3.86-1.71,6.82-4.19,8.88-7.42,2.08-3.23,3.12-7.1,3.12-11.61s-1.04-8.39-3.12-11.65c-2.07-3.27-5.03-5.75-8.88-7.47-3.86-1.72-8.51-2.57-13.97-2.57h-24.27v62.24h8.89v-18.93h15.38c1.37,0,2.68-.05,3.96-.16l13.38,19.09h9.7l-14.77-20.84ZM357.44,117.2h-15.11v-28.02h15.11c5.7,0,10.01,1.23,12.94,3.66,2.93,2.43,4.4,5.87,4.4,10.31s-1.47,7.9-4.4,10.35c-2.94,2.47-7.24,3.7-12.94,3.7Z"/>
          <path class="cls-3" d="M442.19,144.41c-4.74,0-9.15-.8-13.21-2.4-4.06-1.6-7.57-3.84-10.54-6.71-2.96-2.88-5.28-6.24-6.94-10.09-1.66-3.85-2.49-8.06-2.49-12.63s.83-8.77,2.49-12.63c1.66-3.85,3.97-7.22,6.94-10.09,2.96-2.87,6.46-5.11,10.49-6.71,4.03-1.6,8.45-2.4,13.25-2.4s9.13.79,13.16,2.36c4.03,1.57,7.53,3.79,10.49,6.67,2.96,2.88,5.26,6.26,6.89,10.14,1.63,3.88,2.45,8.11,2.45,12.67s-.82,8.86-2.45,12.72c-1.63,3.85-3.93,7.22-6.89,10.09-2.97,2.88-6.46,5.1-10.49,6.67-4.03,1.57-8.42,2.36-13.16,2.36ZM442.1,136.5c3.5,0,6.71-.59,9.65-1.78,2.94-1.18,5.48-2.86,7.65-5.02,2.16-2.16,3.85-4.7,5.07-7.6,1.21-2.9,1.82-6.08,1.82-9.52s-.61-6.59-1.82-9.47c-1.22-2.87-2.91-5.41-5.07-7.6-2.16-2.19-4.71-3.88-7.65-5.07-2.93-1.18-6.15-1.78-9.65-1.78s-6.63.59-9.56,1.78c-2.93,1.19-5.5,2.88-7.69,5.07-2.19,2.19-3.9,4.73-5.11,7.6-1.22,2.88-1.82,6.03-1.82,9.47s.61,6.61,1.82,9.52c1.21,2.91,2.92,5.44,5.11,7.6,2.19,2.17,4.76,3.84,7.69,5.02,2.93,1.19,6.12,1.78,9.56,1.78Z"/>
          <path class="cls-3" d="M551.92,91.51c-2.08-3.27-5.04-5.75-8.9-7.47-3.86-1.72-8.5-2.57-13.95-2.57h-24.28v62.24h8.9v-18.85h15.38c5.46,0,10.1-.87,13.95-2.61,3.86-1.75,6.82-4.24,8.9-7.47,2.07-3.23,3.11-7.1,3.11-11.61s-1.04-8.39-3.11-11.65ZM541.74,113.46c-2.93,2.43-7.26,3.64-12.94,3.64h-15.12v-27.92h15.12c5.68,0,10.01,1.23,12.94,3.66,2.94,2.43,4.4,5.87,4.4,10.31s-1.47,7.88-4.4,10.31Z"/>
          <polygon class="cls-3" points="629.29 135.97 629.29 143.7 584.12 143.7 584.12 81.46 628.05 81.46 628.05 89.18 593 89.18 593 108.31 624.22 108.31 624.22 115.87 593 115.87 593 135.97 629.29 135.97"/>
          <path class="cls-3" d="M696.25,122.86c.59-.21,1.15-.44,1.69-.68,3.86-1.71,6.82-4.19,8.89-7.42,2.08-3.23,3.12-7.1,3.12-11.61s-1.04-8.39-3.12-11.65c-2.07-3.27-5.03-5.75-8.89-7.47-3.86-1.72-8.51-2.57-13.97-2.57h-24.27v62.24h8.88v-18.93h15.38c1.37,0,2.68-.05,3.96-.16l13.38,19.09h9.7l-14.77-20.84ZM683.71,117.2h-15.12v-28.02h15.12c5.7,0,10.01,1.23,12.94,3.66,2.93,2.43,4.4,5.87,4.4,10.31s-1.47,7.9-4.4,10.35c-2.94,2.47-7.24,3.7-12.94,3.7Z"/>
          <path class="cls-3" d="M751.83,143.7v-54.51h-21.34v-7.74h51.49v7.74h-21.34v54.51h-8.8Z"/>
          <polygon class="cls-3" points="855.51 81.46 830.79 122.18 830.79 143.7 821.99 143.7 821.99 122 797.26 81.46 806.78 81.46 826.71 114.29 846.71 81.46 855.51 81.46"/>
        </g>
        <g>
          <polygon class="cls-1" points="923.59 88.11 944.81 88.11 944.81 143.36 951.32 143.36 951.32 88.11 972.54 88.11 972.54 81.77 923.59 81.77 923.59 88.11"/>
          <path class="cls-1" d="M1042.23,90.33c-2.84-2.81-6.23-5.01-10.08-6.56-3.84-1.54-8.05-2.32-12.51-2.32s-8.75.78-12.6,2.32c-3.85,1.55-7.25,3.75-10.12,6.56-2.87,2.81-5.12,6.14-6.7,9.91-1.58,3.77-2.38,7.92-2.38,12.33s.8,8.57,2.38,12.33c1.58,3.77,3.83,7.1,6.7,9.91,2.86,2.81,6.27,5.01,10.12,6.56,3.84,1.54,8.05,2.33,12.52,2.33s8.76-.78,12.6-2.33c3.85-1.54,7.24-3.75,10.08-6.56,2.83-2.8,5.08-6.13,6.69-9.89,1.61-3.77,2.42-7.93,2.42-12.34s-.82-8.65-2.43-12.39c-1.61-3.73-3.85-7.05-6.68-9.85ZM1019.55,137.36c-3.54,0-6.89-.62-9.95-1.85-3.06-1.22-5.75-2.97-8.01-5.21-2.26-2.23-4.04-4.88-5.28-7.85-1.25-2.97-1.88-6.3-1.88-9.88s.63-6.85,1.88-9.85c1.24-3,3.02-5.65,5.28-7.89,2.26-2.23,4.95-3.98,8.01-5.21,3.06-1.23,6.41-1.85,9.95-1.85s6.97.62,10.04,1.85c3.05,1.22,5.75,2.97,8.01,5.21,2.26,2.24,4.04,4.88,5.28,7.85,1.25,2.98,1.88,6.3,1.88,9.88s-.63,6.91-1.88,9.88c-1.25,2.97-3.03,5.62-5.29,7.85-2.26,2.23-4.95,3.99-8.01,5.21-3.06,1.23-6.44,1.85-10.04,1.85Z"/>
          <path class="cls-1" d="M1126.23,90.33c-2.84-2.81-6.23-5.01-10.08-6.56-3.84-1.54-8.05-2.32-12.51-2.32s-8.75.78-12.6,2.32c-3.85,1.55-7.25,3.75-10.11,6.56-2.87,2.81-5.12,6.14-6.7,9.91-1.58,3.77-2.38,7.92-2.38,12.33s.8,8.57,2.38,12.33c1.58,3.77,3.83,7.1,6.7,9.91,2.86,2.81,6.27,5.01,10.12,6.56,3.84,1.54,8.05,2.33,12.52,2.33s8.76-.78,12.6-2.33c3.85-1.54,7.24-3.75,10.08-6.56,2.83-2.8,5.08-6.13,6.69-9.89,1.61-3.77,2.42-7.92,2.42-12.35s-.82-8.65-2.42-12.39c-1.61-3.73-3.85-7.05-6.68-9.85ZM1103.55,137.36c-3.54,0-6.89-.62-9.95-1.85-3.06-1.22-5.75-2.97-8.01-5.21-2.26-2.24-4.04-4.88-5.28-7.85-1.25-2.97-1.88-6.3-1.88-9.88s.63-6.85,1.88-9.85c1.24-3,3.02-5.65,5.28-7.89,2.26-2.23,4.95-3.98,8.01-5.21,3.06-1.23,6.41-1.85,9.95-1.85s6.97.62,10.04,1.85c3.05,1.22,5.74,2.97,8,5.21,2.26,2.24,4.04,4.88,5.29,7.85,1.25,2.98,1.88,6.3,1.88,9.88s-.63,6.91-1.88,9.88c-1.25,2.98-3.03,5.62-5.29,7.85-2.26,2.23-4.95,3.98-8.01,5.21-3.06,1.23-6.44,1.85-10.04,1.85Z"/>
          <polygon class="cls-1" points="1168.29 81.77 1161.71 81.77 1161.71 143.36 1202.16 143.36 1202.16 137.03 1168.29 137.03 1168.29 81.77"/>
          <polygon class="cls-1" points="1275.1 81.77 1266.37 81.77 1231.23 117.9 1231.23 81.77 1224.64 81.77 1224.64 143.36 1231.23 143.36 1231.23 126.95 1243.04 114.8 1268.13 143.36 1276.62 143.36 1247.57 110.18 1275.1 81.77"/>
          <rect class="cls-1" x="1297.08" y="81.77" width="6.58" height="61.59"/>
          <polygon class="cls-1" points="1325.66 81.77 1325.66 88.11 1346.88 88.11 1346.88 143.36 1353.38 143.36 1353.38 88.11 1374.61 88.11 1374.61 81.77 1325.66 81.77"/>
        </g>
      </g>
      <g>
        <rect class="cls-3" x="103.62" y="76.8" width="15.85" height="15.85"/>
        <rect class="cls-3" x="103.62" y="51.76" width="15.85" height="15.85"/>
        <path class="cls-2" d="M195.3,59.58l-68.21,46.54c13.05,6.76,21.07,21.24,20.71,37.92-.41,18.23-10.35,33.79-25.68,40.71v37.99l75.49-57.04-2.3-106.12Z"/>
        <path class="cls-3" d="M121.77,109.64v32.93l-2.45,1.5-20.52,12.63-20.52-12.63-2.45-1.5v-32.93c-29.14,11.48-27.31,60.3,5.08,71.44v45.12c0,1.89,1.53,3.42,3.42,3.42h28.95c1.89,0,3.42-1.53,3.42-3.42v-45.12c32.39-11.14,34.22-59.96,5.08-71.44Z"/>
        <polygon class="cls-3" points="98.8 22.81 172.59 63.71 190.24 50.84 98.8 0 7.36 50.84 25 63.71 98.8 22.81"/>
        <rect class="cls-3" x="78.12" y="76.8" width="15.85" height="15.85"/>
        <rect class="cls-3" x="78.12" y="51.76" width="15.85" height="15.85"/>
        <path class="cls-2" d="M49.81,144.04c-.37-16.68,7.66-31.16,20.71-37.92L2.3,59.58,0,165.7l75.49,57.04v-37.99c-15.33-6.93-25.28-22.48-25.68-40.71Z"/>
      </g>
    </g>
    <g>
      <g>
        <g>
          <path class="cls-3" d="M301.25,91.51c-2.08-3.27-5.04-5.75-8.9-7.47-3.86-1.72-8.51-2.57-13.95-2.57h-24.28v62.24h8.88v-18.85h15.4c5.44,0,10.1-.87,13.95-2.61,3.86-1.75,6.82-4.24,8.9-7.47,2.07-3.23,3.11-7.1,3.11-11.61s-1.04-8.39-3.11-11.65ZM291.05,113.46c-2.92,2.43-7.24,3.64-12.93,3.64h-15.13v-27.92h15.13c5.68,0,10.01,1.23,12.93,3.66,2.93,2.43,4.4,5.87,4.4,10.31s-1.47,7.88-4.4,10.31Z"/>
          <path class="cls-3" d="M369.98,122.86c.59-.21,1.15-.44,1.69-.68,3.86-1.71,6.82-4.19,8.88-7.42,2.08-3.23,3.12-7.1,3.12-11.61s-1.04-8.39-3.12-11.65c-2.07-3.27-5.03-5.75-8.88-7.47-3.86-1.72-8.51-2.57-13.97-2.57h-24.27v62.24h8.89v-18.93h15.38c1.37,0,2.68-.05,3.96-.16l13.38,19.09h9.7l-14.77-20.84ZM357.44,117.2h-15.11v-28.02h15.11c5.7,0,10.01,1.23,12.94,3.66,2.93,2.43,4.4,5.87,4.4,10.31s-1.47,7.9-4.4,10.35c-2.94,2.47-7.24,3.7-12.94,3.7Z"/>
          <path class="cls-3" d="M442.19,144.41c-4.74,0-9.15-.8-13.21-2.4-4.06-1.6-7.57-3.84-10.54-6.71-2.96-2.88-5.28-6.24-6.94-10.09-1.66-3.85-2.49-8.06-2.49-12.63s.83-8.77,2.49-12.63c1.66-3.85,3.97-7.22,6.94-10.09,2.96-2.87,6.46-5.11,10.49-6.71,4.03-1.6,8.45-2.4,13.25-2.4s9.13.79,13.16,2.36c4.03,1.57,7.53,3.79,10.49,6.67,2.96,2.88,5.26,6.26,6.89,10.14,1.63,3.88,2.45,8.11,2.45,12.67s-.82,8.86-2.45,12.72c-1.63,3.85-3.93,7.22-6.89,10.09-2.97,2.88-6.46,5.1-10.49,6.67-4.03,1.57-8.42,2.36-13.16,2.36ZM442.1,136.5c3.5,0,6.71-.59,9.65-1.78,2.94-1.18,5.48-2.86,7.65-5.02,2.16-2.16,3.85-4.7,5.07-7.6,1.21-2.9,1.82-6.08,1.82-9.52s-.61-6.59-1.82-9.47c-1.22-2.87-2.91-5.41-5.07-7.6-2.16-2.19-4.71-3.88-7.65-5.07-2.93-1.18-6.15-1.78-9.65-1.78s-6.63.59-9.56,1.78c-2.93,1.19-5.5,2.88-7.69,5.07-2.19,2.19-3.9,4.73-5.11,7.6-1.22,2.88-1.82,6.03-1.82,9.47s.61,6.61,1.82,9.52c1.21,2.91,2.92,5.44,5.11,7.6,2.19,2.17,4.76,3.84,7.69,5.02,2.93,1.19,6.12,1.78,9.56,1.78Z"/>
          <path class="cls-3" d="M551.92,91.51c-2.08-3.27-5.04-5.75-8.9-7.47-3.86-1.72-8.5-2.57-13.95-2.57h-24.28v62.24h8.9v-18.85h15.38c5.46,0,10.1-.87,13.95-2.61,3.86-1.75,6.82-4.24,8.9-7.47,2.07-3.23,3.11-7.1,3.11-11.61s-1.04-8.39-3.11-11.65ZM541.74,113.46c-2.93,2.43-7.26,3.64-12.94,3.64h-15.12v-27.92h15.12c5.68,0,10.01,1.23,12.94,3.66,2.94,2.43,4.4,5.87,4.4,10.31s-1.47,7.88-4.4,10.31Z"/>
          <polygon class="cls-3" points="629.29 135.97 629.29 143.7 584.12 143.7 584.12 81.46 628.05 81.46 628.05 89.18 593 89.18 593 108.31 624.22 108.31 624.22 115.87 593 115.87 593 135.97 629.29 135.97"/>
          <path class="cls-3" d="M696.25,122.86c.59-.21,1.15-.44,1.69-.68,3.86-1.71,6.82-4.19,8.89-7.42,2.08-3.23,3.12-7.1,3.12-11.61s-1.04-8.39-3.12-11.65c-2.07-3.27-5.03-5.75-8.89-7.47-3.86-1.72-8.51-2.57-13.97-2.57h-24.27v62.24h8.88v-18.93h15.38c1.37,0,2.68-.05,3.96-.16l13.38,19.09h9.7l-14.77-20.84ZM683.71,117.2h-15.12v-28.02h15.12c5.7,0,10.01,1.23,12.94,3.66,2.93,2.43,4.4,5.87,4.4,10.31s-1.47,7.9-4.4,10.35c-2.94,2.47-7.24,3.7-12.94,3.7Z"/>
          <path class="cls-3" d="M751.83,143.7v-54.51h-21.34v-7.74h51.49v7.74h-21.34v54.51h-8.8Z"/>
          <polygon class="cls-3" points="855.51 81.46 830.79 122.18 830.79 143.7 821.99 143.7 821.99 122 797.26 81.46 806.78 81.46 826.71 114.29 846.71 81.46 855.51 81.46"/>
        </g>
        <g>
          <polygon class="cls-1" points="923.59 88.11 944.81 88.11 944.81 143.36 951.32 143.36 951.32 88.11 972.54 88.11 972.54 81.77 923.59 81.77 923.59 88.11"/>
          <path class="cls-1" d="M1042.23,90.33c-2.84-2.81-6.23-5.01-10.08-6.56-3.84-1.54-8.05-2.32-12.51-2.32s-8.75.78-12.6,2.32c-3.85,1.55-7.25,3.75-10.12,6.56-2.87,2.81-5.12,6.14-6.7,9.91-1.58,3.77-2.38,7.92-2.38,12.33s.8,8.57,2.38,12.33c1.58,3.77,3.83,7.1,6.7,9.91,2.86,2.81,6.27,5.01,10.12,6.56,3.84,1.54,8.05,2.33,12.52,2.33s8.76-.78,12.6-2.33c3.85-1.54,7.24-3.75,10.08-6.56,2.83-2.8,5.08-6.13,6.69-9.89,1.61-3.77,2.42-7.93,2.42-12.34s-.82-8.65-2.43-12.39c-1.61-3.73-3.85-7.05-6.68-9.85ZM1019.55,137.36c-3.54,0-6.89-.62-9.95-1.85-3.06-1.22-5.75-2.97-8.01-5.21-2.26-2.23-4.04-4.88-5.28-7.85-1.25-2.97-1.88-6.3-1.88-9.88s.63-6.85,1.88-9.85c1.24-3,3.02-5.65,5.28-7.89,2.26-2.23,4.95-3.98,8.01-5.21,3.06-1.23,6.41-1.85,9.95-1.85s6.97.62,10.04,1.85c3.05,1.22,5.75,2.97,8.01,5.21,2.26,2.24,4.04,4.88,5.28,7.85,1.25,2.98,1.88,6.3,1.88,9.88s-.63,6.91-1.88,9.88c-1.25,2.97-3.03,5.62-5.29,7.85-2.26,2.23-4.95,3.99-8.01,5.21-3.06,1.23-6.44,1.85-10.04,1.85Z"/>
          <path class="cls-1" d="M1126.23,90.33c-2.84-2.81-6.23-5.01-10.08-6.56-3.84-1.54-8.05-2.32-12.51-2.32s-8.75.78-12.6,2.32c-3.85,1.55-7.25,3.75-10.11,6.56-2.87,2.81-5.12,6.14-6.7,9.91-1.58,3.77-2.38,7.92-2.38,12.33s.8,8.57,2.38,12.33c1.58,3.77,3.83,7.1,6.7,9.91,2.86,2.81,6.27,5.01,10.12,6.56,3.84,1.54,8.05,2.33,12.52,2.33s8.76-.78,12.6-2.33c3.85-1.54,7.24-3.75,10.08-6.56,2.83-2.8,5.08-6.13,6.69-9.89,1.61-3.77,2.42-7.92,2.42-12.35s-.82-8.65-2.42-12.39c-1.61-3.73-3.85-7.05-6.68-9.85ZM1103.55,137.36c-3.54,0-6.89-.62-9.95-1.85-3.06-1.22-5.75-2.97-8.01-5.21-2.26-2.24-4.04-4.88-5.28-7.85-1.25-2.97-1.88-6.3-1.88-9.88s.63-6.85,1.88-9.85c1.24-3,3.02-5.65,5.28-7.89,2.26-2.23,4.95-3.98,8.01-5.21,3.06-1.23,6.41-1.85,9.95-1.85s6.97.62,10.04,1.85c3.05,1.22,5.74,2.97,8,5.21,2.26,2.24,4.04,4.88,5.29,7.85,1.25,2.98,1.88,6.3,1.88,9.88s-.63,6.91-1.88,9.88c-1.25,2.98-3.03,5.62-5.29,7.85-2.26,2.23-4.95,3.98-8.01,5.21-3.06,1.23-6.44,1.85-10.04,1.85Z"/>
          <polygon class="cls-1" points="1168.29 81.77 1161.71 81.77 1161.71 143.36 1202.16 143.36 1202.16 137.03 1168.29 137.03 1168.29 81.77"/>
          <polygon class="cls-1" points="1275.1 81.77 1266.37 81.77 1231.23 117.9 1231.23 81.77 1224.64 81.77 1224.64 143.36 1231.23 143.36 1231.23 126.95 1243.04 114.8 1268.13 143.36 1276.62 143.36 1247.57 110.18 1275.1 81.77"/>
          <rect class="cls-1" x="1297.08" y="81.77" width="6.58" height="61.59"/>
          <polygon class="cls-1" points="1325.66 81.77 1325.66 88.11 1346.88 88.11 1346.88 143.36 1353.38 143.36 1353.38 88.11 1374.61 88.11 1374.61 81.77 1325.66 81.77"/>
        </g>
      </g>
      <g>
        <rect class="cls-3" x="103.62" y="76.8" width="15.85" height="15.85"/>
        <rect class="cls-3" x="103.62" y="51.76" width="15.85" height="15.85"/>
        <path class="cls-2" d="M195.3,59.58l-68.21,46.54c13.05,6.76,21.07,21.24,20.71,37.92-.41,18.23-10.35,33.79-25.68,40.71v37.99l75.49-57.04-2.3-106.12Z"/>
        <path class="cls-3" d="M121.77,109.64v32.93l-2.45,1.5-20.52,12.63-20.52-12.63-2.45-1.5v-32.93c-29.14,11.48-27.31,60.3,5.08,71.44v45.12c0,1.89,1.53,3.42,3.42,3.42h28.95c1.89,0,3.42-1.53,3.42-3.42v-45.12c32.39-11.14,34.22-59.96,5.08-71.44Z"/>
        <polygon class="cls-3" points="98.8 22.81 172.59 63.71 190.24 50.84 98.8 0 7.36 50.84 25 63.71 98.8 22.81"/>
        <rect class="cls-3" x="78.12" y="76.8" width="15.85" height="15.85"/>
        <rect class="cls-3" x="78.12" y="51.76" width="15.85" height="15.85"/>
        <path class="cls-2" d="M49.81,144.04c-.37-16.68,7.66-31.16,20.71-37.92L2.3,59.58,0,165.7l75.49,57.04v-37.99c-15.33-6.93-25.28-22.48-25.68-40.71Z"/>
      </g>
    </g>
  </g>
</svg>